<svg xmlns="http://www.w3.org/2000/svg" viewBox="0 0 512 512" width="100%" height="100%">
  <defs>
    <filter id="glow" x="-20%" y="-20%" width="140%" height="140%">
      <feGaussianBlur stdDeviation="5" result="blur" />
      <feMerge>
        <feMergeNode in="blur" />
        <feMergeNode in="SourceGraphic" />
      </feMerge>
    </filter>
    <radialGradient id="bgGlow" cx="50%" cy="50%" r="50%">
      <stop offset="0%" stop-color="#00f0ff" stop-opacity="0.15" />
      <stop offset="100%" stop-color="#00f0ff" stop-opacity="0" />
    </radialGradient>
  </defs>
  <!-- Background radial glow -->
  <circle cx="256" cy="256" r="230" fill="url(#bgGlow)" />
  
  <!-- Outer tech rings -->
  <circle cx="256" cy="256" r="215" fill="none" stroke="#00f0ff" stroke-width="2.5" stroke-dasharray="120 15 30 15 80 20" opacity="0.65" filter="url(#glow)" />
  <circle cx="256" cy="256" r="185" fill="none" stroke="#00f0ff" stroke-width="1" opacity="0.3" />
  
  <!-- HUD crosshair ticks -->
  <path d="M 256 10 L 256 26 M 256 486 L 256 502 M 10 256 L 26 256 M 486 256 L 502 256" stroke="#00f0ff" stroke-width="2.5" opacity="0.7" filter="url(#glow)" />
  
  
  
  <!-- Central Glyph -->
  <g transform="translate(128, 128)" stroke="#00f0ff" stroke-width="6" stroke-linecap="round" stroke-linejoin="round" fill="none" filter="url(#glow)">
    
    <line x1="128" y1="38" x2="128" y2="218" stroke-dasharray="10 6" stroke-width="3" />
    <line x1="38" y1="128" x2="218" y2="128" stroke-dasharray="10 6" stroke-width="3" />
    <!-- Plus -->
    <path d="M 83 63 L 83 103 M 63 83 L 103 83" />
    <!-- Minus -->
    <path d="M 153 83 L 193 83" />
    <!-- Multiply -->
    <path d="M 68 158 L 98 188 M 98 158 L 68 188" />
    <!-- Equals -->
    <path d="M 153 163 L 193 163 M 153 183 L 193 183" />
    
  </g>
</svg>