<svg xmlns="http://www.w3.org/2000/svg" viewBox="0 0 512 512" width="100%" height="100%">
  <defs>
    <filter id="glow" x="-20%" y="-20%" width="140%" height="140%">
      <feGaussianBlur stdDeviation="5" result="blur" />
      <feMerge>
        <feMergeNode in="blur" />
        <feMergeNode in="SourceGraphic" />
      </feMerge>
    </filter>
    <radialGradient id="bgGlow" cx="50%" cy="50%" r="50%">
      <stop offset="0%" stop-color="#00f0ff" stop-opacity="0.15" />
      <stop offset="100%" stop-color="#00f0ff" stop-opacity="0" />
    </radialGradient>
  </defs>
  <!-- Background radial glow -->
  <circle cx="256" cy="256" r="230" fill="url(#bgGlow)" />
  
  <!-- Outer tech rings -->
  <circle cx="256" cy="256" r="215" fill="none" stroke="#00f0ff" stroke-width="2.5" stroke-dasharray="120 15 30 15 80 20" opacity="0.65" filter="url(#glow)" />
  <circle cx="256" cy="256" r="185" fill="none" stroke="#00f0ff" stroke-width="1" opacity="0.3" />
  
  <!-- HUD crosshair ticks -->
  <path d="M 256 10 L 256 26 M 256 486 L 256 502 M 10 256 L 26 256 M 486 256 L 502 256" stroke="#00f0ff" stroke-width="2.5" opacity="0.7" filter="url(#glow)" />
  
  
  
  <!-- Central Glyph -->
  <g transform="translate(128, 128)" stroke="#00f0ff" stroke-width="6" stroke-linecap="round" stroke-linejoin="round" fill="none" filter="url(#glow)">
    
    <path d="M 38 198 C 38 98, 218 98, 218 198" stroke-dasharray="5 5" />
    <path d="M 98 198 L 98 148 L 113 148 L 113 198 M 143 198 L 143 148 L 158 148 L 158 198 M 113 198 L 113 128 L 143 128 L 143 198" />
    <polygon points="128,108 123,128 133,128" fill="#00f0ff" stroke="none" />
    
  </g>
</svg>