<svg xmlns="http://www.w3.org/2000/svg" viewBox="0 0 512 512" width="100%" height="100%">
  <defs>
    <filter id="glow" x="-20%" y="-20%" width="140%" height="140%">
      <feGaussianBlur stdDeviation="5" result="blur" />
      <feMerge>
        <feMergeNode in="blur" />
        <feMergeNode in="SourceGraphic" />
      </feMerge>
    </filter>
    <radialGradient id="bgGlow" cx="50%" cy="50%" r="50%">
      <stop offset="0%" stop-color="#00f0ff" stop-opacity="0.15" />
      <stop offset="100%" stop-color="#00f0ff" stop-opacity="0" />
    </radialGradient>
  </defs>
  <!-- Background radial glow -->
  <circle cx="256" cy="256" r="230" fill="url(#bgGlow)" />
  
  <!-- Outer tech rings -->
  <circle cx="256" cy="256" r="215" fill="none" stroke="#00f0ff" stroke-width="2.5" stroke-dasharray="120 15 30 15 80 20" opacity="0.65" filter="url(#glow)" />
  <circle cx="256" cy="256" r="185" fill="none" stroke="#00f0ff" stroke-width="1" opacity="0.3" />
  
  <!-- HUD crosshair ticks -->
  <path d="M 256 10 L 256 26 M 256 486 L 256 502 M 10 256 L 26 256 M 486 256 L 502 256" stroke="#00f0ff" stroke-width="2.5" opacity="0.7" filter="url(#glow)" />
  
  
  
  <!-- Central Glyph -->
  <g transform="translate(128, 128)" stroke="#00f0ff" stroke-width="6" stroke-linecap="round" stroke-linejoin="round" fill="none" filter="url(#glow)">
    
    <path d="M 128 38 C 78 38, 38 78, 38 128 C 38 168, 64 202, 100 214 C 105 215, 107 212, 107 209 L 107 192 C 93 195, 87 188, 85 183 C 83 178, 77 167, 72 164 C 68 162, 62 156, 72 156 C 81 156, 88 165, 90 169 C 100 186, 116 181, 122 178 C 123 171, 126 166, 129 163 C 103 160, 76 150, 76 104 C 76 91, 81 80, 89 72 C 88 69, 83 56, 90 39 C 90 39, 100 36, 128 55 C 138 52, 149 51, 160 51 C 171 51, 182 52, 192 55 C 220 36, 230 39, 230 39 C 237 56, 232 69, 231 72 C 239 80, 244 91, 244 104 C 244 150, 217 160, 191 163 C 195 167, 199 174, 199 186 L 199 209 C 199 212, 201 215, 206 214 C 242 202, 268 168, 268 128 C 268 78, 228 38, 128 38 Z" />
    
  </g>
</svg>