<svg xmlns="http://www.w3.org/2000/svg" viewBox="0 0 512 512" width="100%" height="100%">
  <defs>
    <filter id="glow" x="-20%" y="-20%" width="140%" height="140%">
      <feGaussianBlur stdDeviation="5" result="blur" />
      <feMerge>
        <feMergeNode in="blur" />
        <feMergeNode in="SourceGraphic" />
      </feMerge>
    </filter>
    <radialGradient id="bgGlow" cx="50%" cy="50%" r="50%">
      <stop offset="0%" stop-color="#00f0ff" stop-opacity="0.15" />
      <stop offset="100%" stop-color="#00f0ff" stop-opacity="0" />
    </radialGradient>
  </defs>
  <!-- Background radial glow -->
  <circle cx="256" cy="256" r="230" fill="url(#bgGlow)" />
  
  <!-- Outer tech rings -->
  <circle cx="256" cy="256" r="215" fill="none" stroke="#00f0ff" stroke-width="2.5" stroke-dasharray="120 15 30 15 80 20" opacity="0.65" filter="url(#glow)" />
  <circle cx="256" cy="256" r="185" fill="none" stroke="#00f0ff" stroke-width="1" opacity="0.3" />
  
  <!-- HUD crosshair ticks -->
  <path d="M 256 10 L 256 26 M 256 486 L 256 502 M 10 256 L 26 256 M 486 256 L 502 256" stroke="#00f0ff" stroke-width="2.5" opacity="0.7" filter="url(#glow)" />
  
  
  
  <!-- Central Glyph -->
  <g transform="translate(128, 128)" stroke="#00f0ff" stroke-width="6" stroke-linecap="round" stroke-linejoin="round" fill="none" filter="url(#glow)">
    
    <path d="M 128 38 C 68 38, 38 78, 38 138 C 38 198, 88 218, 128 218 C 148 218, 158 208, 178 208 C 198 208, 218 218, 218 178 C 218 128, 188 38, 128 38 Z" />
    <circle cx="88" cy="98" r="14" fill="#00f0ff" stroke="none" opacity="0.7" />
    <circle cx="128" cy="88" r="14" fill="#00f0ff" stroke="none" opacity="0.7" />
    <circle cx="168" cy="108" r="14" fill="#00f0ff" stroke="none" opacity="0.7" />
    <circle cx="108" cy="148" r="15" />
    
  </g>
</svg>